<svg id="Layer_1" data-name="Layer 1" xmlns="http://www.w3.org/2000/svg" xmlns:xlink="http://www.w3.org/1999/xlink" viewBox="0 0 242 99"><defs><style>.cls-1{fill:none;}.cls-2{isolation:isolate;}.cls-3{clip-path:url(#clip-path);}.cls-4{fill:#1e1e1e;}.cls-5{clip-path:url(#clip-path-2);}.cls-6{fill:url(#linear-gradient);}</style><clipPath id="clip-path"><rect class="cls-1" x="0.53" y="0.43" width="241.21" height="98.25"/></clipPath><clipPath id="clip-path-2"><path class="cls-1" d="M21.6,76.74C6.86,63,6.08,41.3,19.85,26.56a36.53,36.53,0,0,1,51.62-1.71C86.21,38.63,87,60.26,73.22,75a36.41,36.41,0,0,1-26.7,11.59h0A36.38,36.38,0,0,1,21.6,76.74M42.44,1.05a36.87,36.87,0,0,0-22.16,7.8A39.75,39.75,0,0,0,8.78,23c-3.29,6.72-3.89,13.56-4.56,21A144.7,144.7,0,0,1,2.1,59c-.91,4.67-1.56,9.58,0,14.19,2.3,6.9,8.35,13.44,15.7,14.73a100,100,0,0,1,14,4c4,1.33,7.55,3.83,11.55,5.18,4.48,1.51,8.27,1.07,12.59-.68A50.06,50.06,0,0,0,78.69,77.87c3.73-5.63,6.24-12.66,7.87-19.2,1.24-5,1.8-10.53.3-15.49-.31-1-.71-2-1.11-3-5.84-14.6-15.37-29.7-30.52-36.43A31.14,31.14,0,0,0,42.56,1.05Z"/></clipPath><linearGradient id="linear-gradient" x1="-1254.18" y1="1110.45" x2="-1253.18" y2="1110.45" gradientTransform="matrix(89.98, 0, 0, -89.98, 112852.01, 99971.93)" gradientUnits="userSpaceOnUse"><stop offset="0" stop-color="#0d72ba"/><stop offset="0.1" stop-color="#285ead"/><stop offset="0.22" stop-color="#4349a0"/><stop offset="0.35" stop-color="#563b97"/><stop offset="0.48" stop-color="#623291"/><stop offset="0.61" stop-color="#662f8f"/><stop offset="0.98" stop-color="#93298e"/><stop offset="1" stop-color="#93298e"/></linearGradient></defs><title>logo</title><g class="cls-2"><g class="cls-3"><path class="cls-4" d="M62.19,34.25A22.69,22.69,0,0,1,69.1,50.9V69.51A4.6,4.6,0,0,1,67.63,73a4.76,4.76,0,0,1-3.48,1.47H64A4.77,4.77,0,0,1,60.55,73a4.6,4.6,0,0,1-1.47-3.48q-4.66,5-13.54,4.95a22.73,22.73,0,0,1-16.65-6.91A22.69,22.69,0,0,1,22,50.9a22.69,22.69,0,0,1,6.91-16.65,22.69,22.69,0,0,1,16.65-6.91,22.69,22.69,0,0,1,16.65,6.91M35.93,41.33a13.67,13.67,0,0,0,0,19.18,13.15,13.15,0,0,0,9.61,3.93A13.49,13.49,0,0,0,59.08,50.9,13.55,13.55,0,0,0,45.54,37.36a13.07,13.07,0,0,0-9.61,4"/><path class="cls-4" d="M105.74,54.7a9.76,9.76,0,1,0,19.51,0V32.33a5,5,0,0,1,5-5h.08a4.6,4.6,0,0,1,3.48,1.47,4.8,4.8,0,0,1,1.47,3.52V54.7a19.76,19.76,0,0,1-33.75,14,19,19,0,0,1-5.81-14V32.33a4.81,4.81,0,0,1,1.48-3.52,4.75,4.75,0,0,1,3.47-1.47h.13a5,5,0,0,1,4.95,5Z"/><path class="cls-4" d="M177.91,27.34a4.79,4.79,0,0,1,3.51,1.47,4.85,4.85,0,0,1,1.44,3.52v.08a4.74,4.74,0,0,1-1.44,3.48,4.79,4.79,0,0,1-3.51,1.47h-2.34a7.74,7.74,0,0,0-5.68,2.33,7.91,7.91,0,0,0-2.33,5.69V69.51A4.57,4.57,0,0,1,166.08,73a4.75,4.75,0,0,1-3.47,1.47h-.12A4.76,4.76,0,0,1,159,73a4.6,4.6,0,0,1-1.47-3.48V45.38a17.81,17.81,0,0,1,5.27-12.77,17.41,17.41,0,0,1,12.76-5.27Z"/><path class="cls-4" d="M234.21,34.25a22.7,22.7,0,0,1,6.92,16.65V69.51A4.57,4.57,0,0,1,239.65,73a4.75,4.75,0,0,1-3.47,1.47h-.13A4.75,4.75,0,0,1,232.58,73a4.6,4.6,0,0,1-1.47-3.48q-4.67,5-13.54,4.95a22.71,22.71,0,0,1-16.65-6.91A22.7,22.7,0,0,1,194,50.9a22.7,22.7,0,0,1,6.92-16.65,23.5,23.5,0,0,1,33.29,0M208,41.33a13.69,13.69,0,0,0,0,19.18,13.17,13.17,0,0,0,9.62,3.93A13.49,13.49,0,0,0,231.11,50.9,13.57,13.57,0,0,0,208,41.33"/><g class="cls-5"><rect class="cls-6" x="-13.46" y="-10.99" width="115.83" height="121.69" transform="translate(-14.33 18.14) rotate(-19.93)"/></g></g></g></svg>