<?xml version="1.0" encoding="utf-8"?>
<!-- Generator: Adobe Illustrator 19.0.0, SVG Export Plug-In . SVG Version: 6.00 Build 0)  -->
<svg version="1.1" id="Layer_1" xmlns="http://www.w3.org/2000/svg" xmlns:xlink="http://www.w3.org/1999/xlink" x="0px" y="0px"
	 viewBox="-287 379.7 36.3 35.5" style="enable-background:new -287 379.7 36.3 35.5;" xml:space="preserve">
<style type="text/css">
	.st0{fill:none;stroke:#000000;stroke-width:2.42;stroke-linecap:round;stroke-linejoin:round;}
</style>
<title>icn-camera</title>
<g id="Layer_2">
	<g id="Layer_1-2">
		<path class="st0" d="M-268.9,392.6c3.3,0,6.1,2.7,6.1,6c0,3.3-2.7,6.1-6,6.1s-6.1-2.7-6.1-6c0,0,0,0,0,0
			C-274.9,395.4-272.2,392.7-268.9,392.6z M-282.3,389h4.9l3.6-4.8h9.7l3.6,4.8h4.7c2.1,0,3.8,1.7,3.8,3.8l0,0v14.1
			c0,2.2-1.7,3.9-3.9,3.9h-25.7c-2.3,0-4.2-1.9-4.2-4.2v-14C-285.8,390.6-284.2,389-282.3,389z"/>
	</g>
</g>
</svg>
