<svg xmlns="http://www.w3.org/2000/svg" viewBox="0 0 35.22 35.22"><defs><style>.cls-1{fill:none;stroke:#000;stroke-linecap:round;stroke-linejoin:round;stroke-width:2.35px;}</style></defs><title>icn-gear</title><g id="Layer_2" data-name="Layer 2"><g id="Layer_1-2" data-name="Layer 1"><path class="cls-1" d="M17.61,12.91a4.7,4.7,0,1,1-4.7,4.7A4.7,4.7,0,0,1,17.61,12.91ZM14.09,4.49V5.87L11.74,7,10.57,5.87a3.32,3.32,0,0,0-4.7,4.69L7,11.74,5.87,14.09H4.49a3.32,3.32,0,0,0-3.32,3.32v.4a3.32,3.32,0,0,0,3.32,3.32H5.87L7,23.48,5.87,24.65a3.32,3.32,0,0,0,4.7,4.7l1.17-1.18,2.35,1.18v1.37A3.31,3.31,0,0,0,17.41,34h.4a3.32,3.32,0,0,0,3.32-3.32V29.35l2.35-1.18,1.17,1.18a3.32,3.32,0,0,0,4.7-4.7l-1.18-1.17,1.18-2.35h1.37A3.32,3.32,0,0,0,34,17.81v-.4a3.31,3.31,0,0,0-3.32-3.32H29.35l-1.18-2.35,1.18-1.18a3.32,3.32,0,0,0-4.7-4.69L23.48,7,21.13,5.87V4.49a3.32,3.32,0,0,0-3.32-3.32h-.4A3.32,3.32,0,0,0,14.09,4.49Z"/></g></g></svg>